<?xml version="1.0" encoding="UTF-8" standalone="no"?>
<svg
   width="40"
   height="31"
   fill="none"
   version="1.1"
   id="svg5130"
   sodipodi:docname="thirteen.svg"
   inkscape:version="1.2 (dc2aedaf03, 2022-05-15)"
   xmlns:inkscape="http://www.inkscape.org/namespaces/inkscape"
   xmlns:sodipodi="http://sodipodi.sourceforge.net/DTD/sodipodi-0.dtd"
   xmlns="http://www.w3.org/2000/svg"
   xmlns:svg="http://www.w3.org/2000/svg">
  <sodipodi:namedview
     id="namedview5132"
     pagecolor="#ffffff"
     bordercolor="#000000"
     borderopacity="0.25"
     inkscape:showpageshadow="2"
     inkscape:pageopacity="0.0"
     inkscape:pagecheckerboard="0"
     inkscape:deskcolor="#d1d1d1"
     showgrid="false"
     inkscape:zoom="19.091883"
     inkscape:cx="19.772801"
     inkscape:cy="13.513596"
     inkscape:window-width="1920"
     inkscape:window-height="1017"
     inkscape:window-x="-8"
     inkscape:window-y="-8"
     inkscape:window-maximized="1"
     inkscape:current-layer="svg5130" />
  <defs
     id="defs5128">
    <linearGradient
       id="a"
       x1="20"
       x2="20"
       y1="0"
       y2="30.1"
       gradientUnits="userSpaceOnUse">
      <stop
         id="stop5118" />
      <stop
         offset="1"
         stop-color="#3D3D3D"
         id="stop5120" />
    </linearGradient>
    <linearGradient
       id="b"
       x1="20"
       x2="20"
       y1="0"
       y2="30.1"
       gradientUnits="userSpaceOnUse">
      <stop
         id="stop5123" />
      <stop
         offset="1"
         stop-color="#3D3D3D"
         id="stop5125" />
    </linearGradient>
  </defs>
  <path
     sodipodi:type="spiral"
     style="fill:none;fill-rule:evenodd;stroke:#000000"
     id="path5614"
     sodipodi:cx="0.052378278"
     sodipodi:cy="0"
     sodipodi:expansion="1"
     sodipodi:revolution="3"
     sodipodi:radius="11.795816"
     sodipodi:argument="-17.694729"
     sodipodi:t0="0"
     d="M 0.05237828,0 C 0.29135874,0.54098989 -0.55896076,0.58904621 -0.8467825,0.39720124 -1.6267616,-0.12268679 -1.3407155,-1.2688292 -0.7420242,-1.7983216 0.32889413,-2.7454592 1.9728027,-2.2684625 2.7498606,-1.1916037 3.8902243,0.38872985 3.2012304,2.5883168 1.6411832,3.5966431 -0.43811429,4.9405835 -3.2098871,4.0317247 -4.4434256,1.9860062 -5.9957079,-0.58832178 -4.8635731,-3.9391667 -2.3308291,-5.3949647 0.73666319,-7.1581311 4.6701227,-5.8009752 6.3465037,-2.7804087 8.3220608,0.77922443 6.7388796,5.2973692 3.2299882,7.1932862 -0.82116589,9.3821974 -5.9253148,7.5723626 -8.0400687,3.5748111 -10.442986,-0.96746095 -8.4060794,-6.6585072 -3.9196341,-8.9916078 1.1134796,-11.608994 7.3920567,-9.3447221 9.9431468,-4.3692136 12.77534,1.1545439 10.283491,8.0211181 4.8187931,10.789929"
     transform="translate(9.6899818,19.641855)" />
  <path
     sodipodi:type="spiral"
     style="fill:none;fill-rule:evenodd;stroke:#000000"
     id="path5616"
     sodipodi:cx="2.3046443"
     sodipodi:cy="-1.2570788"
     sodipodi:expansion="1"
     sodipodi:revolution="3"
     sodipodi:radius="8.4368057"
     sodipodi:argument="-17.980652"
     sodipodi:t0="0"
     d="M 2.3046443,-1.2570788 C 2.5777653,-0.93406063 2.0039706,-0.7295514 1.767767,-0.80313375 1.1276697,-1.0025374 1.0927458,-1.8467234 1.3967543,-2.3308335 1.9405543,-3.196793 3.1648274,-3.2010999 3.9152765,-2.6189138 5.0165908,-1.7645323 4.987521,-0.11618718 4.1204244,0.8904308 2.964721,2.2320943 0.87938925,2.1675789 -0.37974261,1.0126463 -1.9642316,-0.44071852 -1.8633192,-2.9684503 -0.41902573,-4.4783431 1.3302072,-6.3070256 4.3031219,-6.1692333 6.0627861,-4.4346939 8.1364894,-2.3905992 7.9615459,1.0291221 5.9362045,3.0379404 3.5978676,5.3572006 -0.26969177,5.1449407 -2.5272522,2.8284264 -5.0924358,0.19625555 -4.8427524,-4.1198394 -2.2348058,-6.6258527 0.69091614,-9.4372209 5.4560404,-9.150041 8.2102957,-6.2504739 11.268041,-3.0314049 10.943313,2.1831115 7.7519845,5.1854499"
     transform="translate(4.8711801,9.2709556)" />
  <path
     sodipodi:type="spiral"
     style="fill:none;fill-rule:evenodd;stroke:#000000"
     id="path5618"
     sodipodi:cx="16.080132"
     sodipodi:cy="1.9379964"
     sodipodi:expansion="1"
     sodipodi:revolution="3"
     sodipodi:radius="5.2597809"
     sodipodi:argument="-16.507444"
     sodipodi:t0="0"
     d="M 16.080132,1.9379964 C 15.8963,2.1270801 15.734555,1.7834823 15.765862,1.6324562 c 0.08484,-0.4092713 0.606509,-0.4822193 0.92535,-0.3229988 0.570331,0.2848082 0.64737,1.0441669 0.331728,1.5451595 -0.463217,0.7352267 -1.487726,0.8173162 -2.164969,0.3404574 -0.902659,-0.6355777 -0.9893,-1.933375 -0.349187,-2.78477873 0.805517,-1.07140477 2.380019,-1.16233548 3.404589,-0.35791612 1.24089,0.97425965 1.33598,2.82722345 0.366645,4.02439805 C 17.13769,5.4876064 15.005241,5.5867859 13.63581,4.4521523 12.054748,3.1421729 11.951519,0.7295887 13.251706,-0.81186509 14.729061,-2.5633629 17.42222,-2.6706177 19.135533,-1.2046985 c 1.922079,1.64453973 2.033344,4.6185837 0.401563,6.5036367 -1.811586,2.092766 -5.066744,2.2080314 -7.123446,0.4102921"
     transform="translate(4.0855049,2.7760485)" />
  <path
     sodipodi:type="spiral"
     style="fill:none;fill-rule:evenodd;stroke:#000000"
     id="path5620"
     sodipodi:cx="27.760489"
     sodipodi:cy="4.8188019"
     sodipodi:expansion="1"
     sodipodi:revolution="3"
     sodipodi:radius="8.3072014"
     sodipodi:argument="-16.350203"
     sodipodi:t0="0"
     d="M 27.760489,4.8188019 C 27.426966,5.0682872 27.259639,4.4923068 27.345828,4.2644648 27.579394,3.6470269 28.411183,3.6622559 28.869163,3.98948 29.688381,4.5748072 29.620747,5.7783819 29.004471,6.4818132 28.100062,7.5141268 26.481632,7.3887937 25.54314,6.4774456 24.292279,5.2627619 24.478103,3.216904 25.687184,2.0471164 27.208689,0.57505816 29.68724,0.8226259 31.086511,2.3308363 32.781216,4.1574812 32.471266,7.0714313 30.663115,8.6991615 28.532271,10.617385 25.181342,10.244692 23.325792,8.1360893 21.183486,5.7016242 21.619146,1.912711 24.02854,-0.17023196 c 2.737707,-2.36677214 6.965283,-1.86799924 9.275319,0.84242456 2.591512,3.0406858 2.029526,7.7074058 -0.9821,10.2443174 -3.343476,2.816452 -8.449693,2.19118 -11.213316,-1.121777"
     transform="translate(4.3473972,2.1475095)" />
  <path
     sodipodi:type="star"
     style="fill:none;stroke:#000000"
     id="path5674"
     inkscape:flatsided="false"
     sodipodi:sides="5"
     sodipodi:cx="21.265581"
     sodipodi:cy="14.089757"
     sodipodi:r1="2.0951312"
     sodipodi:r2="1.0475656"
     sodipodi:arg1="1.5707963"
     sodipodi:arg2="2.1991149"
     inkscape:rounded="0"
     inkscape:randomized="0"
     d="m 21.265581,16.184888 -0.615744,-1.247633 -1.376844,-0.200067 0.996294,-0.971147 -0.235193,-1.371281 1.231487,0.647431 1.231487,-0.647431 -0.235193,1.371281 0.996294,0.971147 -1.376844,0.200067 z"
     inkscape:transform-center-y="0.20006723"
     transform="translate(1.3618353,-1.1523222)" />
  <path
     sodipodi:type="star"
     style="fill:none;stroke:#000000"
     id="path5678"
     inkscape:flatsided="false"
     sodipodi:sides="5"
     sodipodi:cx="39.912251"
     sodipodi:cy="30.903185"
     sodipodi:r1="9.5552683"
     sodipodi:r2="4.7776341"
     sodipodi:arg1="-2.4805495"
     sodipodi:arg2="-1.852231"
     inkscape:rounded="0"
     inkscape:randomized="0"
     d="m 32.369778,25.036818 6.21556,1.276695 4.575407,-4.396453 0.706505,6.30587 5.595153,2.992892 -5.778916,2.620546 -1.117412,6.246162 -4.278072,-4.686283 -6.285751,0.867448 3.134922,-5.516828 z"
     inkscape:transform-center-x="-0.7889034"
     inkscape:transform-center-y="0.075072139"
     transform="matrix(0.96198737,0,0,0.77706329,-8.8188708,-0.8646358)" />
</svg>
